# Blender v2.74 (sub 0) OBJ File: 'PowerupBoard.blend'
# www.blender.org
mtllib PowerupBoard.mtl
o Cube
v -3.000000 0.100000 -5.000000
v -3.000001 0.100000 3.745065
v -2.437501 0.100000 4.921565
v -2.250001 0.100000 4.999999
v -3.000001 0.100000 4.058798
v -2.437501 0.100000 4.843132
v -3.000001 0.100000 3.901932
v -2.250001 0.100000 4.921565
v -2.625001 0.100000 3.745065
v -2.625001 0.100000 4.372532
v -2.625001 0.100000 4.058799
v -2.250001 0.100000 4.843132
v -2.625001 0.100000 4.686265
v -2.625001 0.100000 4.529398
v -2.625001 0.100000 3.901932
v -2.625001 0.100000 4.215665
v -2.625001 0.100000 4.843132
v -2.775892 0.100000 4.686265
v -2.871521 0.100000 4.529398
v -2.935106 0.100000 4.372531
v -2.975415 0.100000 4.215665
v -2.437501 0.100000 4.953341
v -2.497267 0.100000 4.921565
v 3.000000 0.100000 -5.000000
v 3.000001 0.100000 3.745065
v -3.000001 -0.206616 3.745065
v -2.437501 -0.206616 4.921565
v -3.000000 -0.206616 -5.000000
v 2.437501 0.100000 4.921565
v -2.625001 -0.206616 4.372532
v 2.250001 0.100000 4.999999
v 3.000001 0.100000 4.058798
v -2.625001 -0.206616 3.745065
v 2.437501 0.100000 4.843132
v -2.250001 -0.206616 4.921565
v 3.000001 0.100000 3.901932
v -3.000001 -0.206616 3.901932
v -2.437501 -0.206616 4.843132
v -3.000001 -0.206616 4.058798
v 2.250001 0.100000 4.921565
v 2.625001 0.100000 3.745065
v -2.250001 -0.206616 4.999999
v 2.625001 0.100000 4.372532
v 2.625001 0.100000 4.058799
v 2.250001 0.100000 4.843132
v 2.625001 0.100000 4.686265
v 2.625001 0.100000 4.529398
v 2.625001 0.100000 3.901932
v 2.625001 0.100000 4.215665
v 2.625001 0.100000 4.843132
v 2.775892 0.100000 4.686265
v 2.871521 0.100000 4.529398
v 2.935106 0.100000 4.372531
v 2.975415 0.100000 4.215665
v 2.437501 0.100000 4.953341
v 2.497267 0.100000 4.921565
v -2.625001 -0.206616 4.058799
v -2.250001 -0.206616 4.843132
v -2.625001 -0.206616 4.686265
v -2.625001 -0.206616 4.529398
v -2.625001 -0.206616 3.901932
v -2.625001 -0.206616 4.215665
v -2.625001 -0.206616 4.843132
v -2.775892 -0.206616 4.686265
v -2.871521 -0.206616 4.529398
v -2.935106 -0.206616 4.372531
v -2.975415 -0.206616 4.215665
v -2.437501 -0.206616 4.953341
v -2.497267 -0.206616 4.921565
v 3.000000 -0.206616 -5.000000
v 3.000001 -0.206616 3.745065
v 2.437501 -0.206616 4.921565
v 2.250001 -0.206616 4.999999
v 3.000001 -0.206616 4.058798
v 2.437501 -0.206616 4.843132
v 3.000001 -0.206616 3.901932
v 2.250001 -0.206616 4.921565
v 2.625001 -0.206616 3.745065
v 2.625001 -0.206616 4.372532
v 2.625001 -0.206616 4.058799
v 2.250001 -0.206616 4.843132
v 2.625001 -0.206616 4.686265
v 2.625001 -0.206616 4.529398
v 2.625001 -0.206616 3.901932
v 2.625001 -0.206616 4.215665
v 2.625001 -0.206616 4.843132
v 2.775892 -0.206616 4.686265
v 2.871521 -0.206616 4.529398
v 2.935106 -0.206616 4.372531
v 2.975415 -0.206616 4.215665
v 2.437501 -0.206616 4.953341
v 2.497267 -0.206616 4.921565
vt 0.937971 0.077726
vt 0.937971 0.062181
vt 0.989656 0.062181
vt 0.062500 0.077726
vt 0.004098 0.077726
vt 0.010816 0.062181
vt 0.062500 0.108816
vt 0.000000 0.108816
vt 0.000000 0.093271
vt 0.062500 0.046635
vt 0.021413 0.046635
vt 0.037352 0.031090
vt 0.062500 0.062181
vt 0.062500 0.124605
vt 0.937971 0.124605
vt 0.000000 1.000000
vt 0.000000 0.124361
vt 0.062500 0.093271
vt 0.125000 0.007773
vt 0.093750 0.007773
vt 0.093750 0.004624
vt 0.062500 0.031090
vt 0.062500 0.015545
vt 0.093750 0.015545
vt 0.083789 0.007773
vt 0.937971 0.108816
vt 0.937971 0.093271
vt 1.000471 0.093271
vt 0.937971 0.046635
vt 0.937971 0.031090
vt 0.963120 0.031090
vt 0.979058 0.046635
vt 1.000471 0.108816
vt 1.000471 0.124361
vt 0.996374 0.077726
vt 0.875471 0.007773
vt 0.875471 0.000000
vt 0.906721 0.004624
vt 0.875471 0.015545
vt 0.906721 0.015545
vt 0.937971 0.015545
vt 0.906721 0.007773
vt 0.916682 0.007773
vt 0.937971 0.124361
vt 0.125000 0.015545
vt 1.000471 1.000000
vt 0.915870 0.008733
vt 0.937118 0.016490
vt 0.038254 0.032005
vt 0.063354 0.016490
vt 0.995406 0.078549
vt 0.999496 0.094064
vt 0.999496 0.125337
vt 0.999496 0.999025
vt 0.978124 0.047520
vt 0.988701 0.063035
vt 0.874740 0.000975
vt 0.905929 0.005590
vt 0.000976 0.999025
vt 0.000976 0.125337
vt 0.084601 0.008733
vt 0.962217 0.032005
vt 0.000976 0.094064
vt 0.005065 0.078549
vt 0.011770 0.063035
vt 0.022347 0.047520
vt 0.999496 0.109579
vt 0.094543 0.005590
vt 0.125732 0.000975
vt 0.999496 0.125094
vt 0.000976 0.125094
vt 0.000976 0.109579
vt 0.000000 0.124605
vt 1.000471 0.124605
vt 0.062500 0.124361
vt 0.125000 0.000000
vn 0.000000 -1.000000 0.000000
vn -0.685300 -0.692400 0.225800
vn 0.000000 1.000000 0.000000
vn -0.702800 0.696400 0.145000
vn -0.685300 0.692400 0.225800
vn -0.707100 0.707100 0.000000
vn -0.721600 0.690000 0.056200
vn -0.647100 0.689300 0.325700
vn -0.578200 0.683300 0.445700
vn -0.577300 0.577300 -0.577300
vn -0.262400 0.680600 0.684000
vn -0.459900 0.679600 0.571400
vn -0.354500 0.700200 0.619700
vn -0.721600 -0.690000 0.056200
vn 0.685300 0.692400 0.225800
vn 0.721600 0.690000 0.056200
vn 0.578200 0.683300 0.445700
vn 0.647100 0.689300 0.325700
vn -0.578200 -0.683300 0.445700
vn 0.707100 0.707100 0.000000
vn 0.702800 0.696400 0.145000
vn 0.089100 0.680700 0.727100
vn 0.262400 0.680600 0.684000
vn 0.459900 0.679600 0.571400
vn 0.354500 0.700200 0.619700
vn -0.647100 -0.689300 0.325700
vn -0.577300 -0.577300 -0.577300
vn 0.577300 -0.577300 -0.577300
vn -0.707100 -0.707100 0.000000
vn -0.702800 -0.696400 0.145000
vn -0.089100 -0.680700 0.727100
vn -0.262400 -0.680600 0.684000
vn -0.459900 -0.679600 0.571400
vn -0.354500 -0.700200 0.619700
vn 0.702800 -0.696400 0.145000
vn 0.685300 -0.692400 0.225800
vn 0.707100 -0.707100 0.000000
vn 0.721600 -0.690000 0.056200
vn 0.647100 -0.689300 0.325700
vn 0.578200 -0.683300 0.445700
vn 0.262400 -0.680600 0.684000
vn 0.459900 -0.679600 0.571400
vn 0.354500 -0.700200 0.619700
vn 0.577300 0.577300 -0.577300
vn 0.089100 -0.680700 0.727100
vn -0.089100 0.680700 0.727100
usemtl Material
s 1
f 62/1/1 30/2/1 66/3/2
f 16/4/3 21/5/4 20/6/5
f 15/7/3 7/8/6 5/9/7
f 14/10/3 19/11/8 18/12/9
f 10/13/3 20/6/5 19/11/8
f 9/14/3 41/15/3 1/16/10
f 2/17/6 7/8/6 15/7/3
f 11/18/3 5/9/7 21/5/4
f 8/19/3 3/20/3 22/21/11
f 13/22/3 17/23/12 6/24/3
f 13/22/3 18/12/9 17/23/12
f 6/24/3 3/20/3 8/19/3
f 6/24/3 17/23/12 23/25/13
f 3/20/3 23/25/13 22/21/11
f 61/26/1 57/27/1 39/28/14
f 49/1/3 43/2/3 53/3/15
f 48/26/3 44/27/3 32/28/16
f 47/29/3 46/30/3 51/31/17
f 43/2/3 47/29/3 52/32/18
f 60/29/1 59/30/1 64/31/19
f 48/26/3 36/33/20 25/34/20
f 44/27/3 49/1/3 54/35/21
f 40/36/3 31/37/22 55/38/23
f 46/30/3 45/39/3 34/40/3
f 46/30/3 50/41/24 51/31/17
f 40/36/3 29/42/3 34/40/3
f 34/40/3 29/42/3 56/43/25
f 29/42/3 55/38/23 56/43/25
f 45/39/3 41/44/3 12/45/3
f 30/2/1 60/29/1 65/32/26
f 78/14/1 28/46/27 70/16/28
f 61/26/1 37/33/29 26/34/29
f 57/27/1 62/1/1 67/35/30
f 35/36/1 42/37/31 68/38/32
f 59/30/1 58/39/1 38/40/1
f 59/30/1 63/41/33 64/31/19
f 35/36/1 27/42/1 38/40/1
f 38/40/1 27/42/1 69/43/34
f 27/42/1 68/38/32 69/43/34
f 85/4/1 90/5/35 89/6/36
f 84/7/1 76/8/37 74/9/38
f 83/10/1 88/11/39 87/12/40
f 79/13/1 89/6/36 88/11/39
f 71/17/37 76/8/37 84/7/1
f 80/18/1 74/9/38 90/5/35
f 77/19/1 72/20/1 91/21/41
f 82/22/1 86/23/42 75/24/1
f 82/22/1 87/12/40 86/23/42
f 75/24/1 72/20/1 77/19/1
f 75/24/1 86/23/42 92/25/43
f 72/20/1 92/25/43 91/21/41
f 81/45/1 58/39/1 33/44/1
f 92/47/43 86/48/42 50/48/24
f 64/49/19 63/50/33 17/50/12
f 90/51/35 74/52/38 32/52/16
f 71/53/37 70/54/28 24/54/44
f 88/55/39 89/56/36 53/56/15
f 73/57/45 91/58/41 55/58/23
f 28/59/27 26/60/29 2/60/6
f 63/50/33 69/61/34 23/61/13
f 87/62/40 88/55/39 52/55/18
f 39/63/14 67/64/30 21/64/4
f 66/65/2 65/66/26 19/66/8
f 74/52/38 76/67/37 36/67/20
f 68/68/32 42/69/31 4/69/46
f 65/66/26 64/49/19 18/49/9
f 91/58/41 92/47/43 56/47/25
f 76/67/37 71/70/37 25/70/20
f 89/56/36 90/51/35 54/51/21
f 26/71/29 37/72/29 7/72/6
f 70/54/28 28/59/27 1/59/10
f 37/72/29 39/63/14 5/63/7
f 69/61/34 68/68/32 22/68/11
f 42/69/31 73/57/45 31/57/22
f 86/48/42 87/62/40 51/62/17
f 67/64/30 66/65/2 20/65/5
f 67/35/30 62/1/1 66/3/2
f 10/13/3 16/4/3 20/6/5
f 11/18/3 15/7/3 5/9/7
f 13/22/3 14/10/3 18/12/9
f 14/10/3 10/13/3 19/11/8
f 1/16/10 2/73/6 9/14/3
f 41/15/3 24/46/44 1/16/10
f 24/46/44 41/15/3 25/74/20
f 9/75/3 2/17/6 15/7/3
f 16/4/3 11/18/3 21/5/4
f 4/76/46 8/19/3 22/21/11
f 12/45/3 13/22/3 6/24/3
f 12/45/3 6/24/3 8/19/3
f 3/20/3 6/24/3 23/25/13
f 37/33/29 61/26/1 39/28/14
f 54/35/21 49/1/3 53/3/15
f 36/33/20 48/26/3 32/28/16
f 52/32/18 47/29/3 51/31/17
f 53/3/15 43/2/3 52/32/18
f 65/32/26 60/29/1 64/31/19
f 41/44/3 48/26/3 25/34/20
f 32/28/16 44/27/3 54/35/21
f 29/42/3 40/36/3 55/38/23
f 50/41/24 46/30/3 34/40/3
f 45/39/3 40/36/3 34/40/3
f 50/41/24 34/40/3 56/43/25
f 45/39/3 43/2/3 49/1/3
f 45/39/3 46/30/3 47/29/3
f 12/45/3 40/36/3 45/39/3
f 8/19/3 4/76/46 31/37/22
f 14/10/3 13/22/3 12/45/3
f 40/36/3 8/19/3 31/37/22
f 45/39/3 47/29/3 43/2/3
f 12/45/3 8/19/3 40/36/3
f 10/13/3 14/10/3 12/45/3
f 12/45/3 16/4/3 10/13/3
f 12/45/3 15/7/3 11/18/3
f 12/45/3 41/44/3 9/75/3
f 45/39/3 44/27/3 48/26/3
f 44/27/3 45/39/3 49/1/3
f 11/18/3 16/4/3 12/45/3
f 12/45/3 9/75/3 15/7/3
f 41/44/3 45/39/3 48/26/3
f 66/3/2 30/2/1 65/32/26
f 28/46/27 78/14/1 33/15/1
f 78/14/1 70/16/28 71/73/37
f 33/15/1 26/74/29 28/46/27
f 33/44/1 61/26/1 26/34/29
f 39/28/14 57/27/1 67/35/30
f 27/42/1 35/36/1 68/38/32
f 63/41/33 59/30/1 38/40/1
f 58/39/1 35/36/1 38/40/1
f 63/41/33 38/40/1 69/43/34
f 79/13/1 85/4/1 89/6/36
f 80/18/1 84/7/1 74/9/38
f 82/22/1 83/10/1 87/12/40
f 83/10/1 79/13/1 88/11/39
f 78/75/1 71/17/37 84/7/1
f 85/4/1 80/18/1 90/5/35
f 73/76/45 77/19/1 91/21/41
f 81/45/1 82/22/1 75/24/1
f 81/45/1 75/24/1 77/19/1
f 72/20/1 75/24/1 92/25/43
f 81/45/1 80/18/1 85/4/1
f 81/45/1 78/75/1 84/7/1
f 58/39/1 61/26/1 33/44/1
f 58/39/1 62/1/1 57/27/1
f 58/39/1 60/29/1 30/2/1
f 77/19/1 35/36/1 58/39/1
f 58/39/1 59/30/1 60/29/1
f 58/39/1 57/27/1 61/26/1
f 81/45/1 84/7/1 80/18/1
f 81/45/1 79/13/1 83/10/1
f 83/10/1 82/22/1 81/45/1
f 35/36/1 77/19/1 73/76/45
f 73/76/45 42/37/31 35/36/1
f 58/39/1 30/2/1 62/1/1
f 81/45/1 85/4/1 79/13/1
f 81/45/1 77/19/1 58/39/1
f 33/44/1 78/75/1 81/45/1
f 56/47/25 92/47/43 50/48/24
f 18/49/9 64/49/19 17/50/12
f 54/51/21 90/51/35 32/52/16
f 25/53/20 71/53/37 24/54/44
f 52/55/18 88/55/39 53/56/15
f 31/57/22 73/57/45 55/58/23
f 1/59/10 28/59/27 2/60/6
f 17/50/12 63/50/33 23/61/13
f 51/62/17 87/62/40 52/55/18
f 5/63/7 39/63/14 21/64/4
f 20/65/5 66/65/2 19/66/8
f 32/52/16 74/52/38 36/67/20
f 22/68/11 68/68/32 4/69/46
f 19/66/8 65/66/26 18/49/9
f 55/58/23 91/58/41 56/47/25
f 36/67/20 76/67/37 25/70/20
f 53/56/15 89/56/36 54/51/21
f 2/71/6 26/71/29 7/72/6
f 24/54/44 70/54/28 1/59/10
f 7/72/6 37/72/29 5/63/7
f 23/61/13 69/61/34 22/68/11
f 4/69/46 42/69/31 31/57/22
f 50/48/24 86/48/42 51/62/17
f 21/64/4 67/64/30 20/65/5
